<svg xmlns="http://www.w3.org/2000/svg" version="1.1" xmlns:xlink="http://www.w3.org/1999/xlink" xmlns:svgjs="http://svgjs.dev/svgjs" width="2000" height="727" viewBox="0 0 2000 727"><g transform="matrix(1,0,0,1,-1.2121212121212466,-1.1468019595627652)"><svg viewBox="0 0 396 144" data-background-color="#ffffff" preserveAspectRatio="xMidYMid meet" height="727" width="2000" xmlns="http://www.w3.org/2000/svg" xmlns:xlink="http://www.w3.org/1999/xlink"><g id="tight-bounds" transform="matrix(1,0,0,1,0.2400000000000091,0.2271519699821738)"><svg viewBox="0 0 395.52 143.54569606003562" height="143.54569606003562" width="395.52"><g><svg viewBox="0 0 648.8348858836208 235.4810257943925" height="143.54569606003562" width="395.52"><g transform="matrix(1,0,0,1,253.31488588362083,72.76705495327101)"><svg viewBox="0 0 395.52 89.94691588785047" height="89.94691588785047" width="395.52"><g id="textblocktransform"><svg viewBox="0 0 395.52 89.94691588785047" height="89.94691588785047" width="395.52" id="textblock"><g><svg viewBox="0 0 395.52 89.94691588785047" height="89.94691588785047" width="395.52"><g transform="matrix(1,0,0,1,0,0)"><svg width="395.52" viewBox="2.15 -36 160.48999999999998 36.5" height="89.94691588785047" data-palette-color="#000000"><path d="M23.6-25.1L23.6-11.9 21.05-11.9 20.15-17 11.85-17 11.85-3 26.95-3 28.5-11.15 31.4-11.15 31.4 0 2.15 0 2.15-2.15 6.85-3.2 6.85-32.8 2.15-33.85 2.15-36 30.3-36 30.3-25.4 27.7-25.4 26.1-33.1 11.85-33.1 11.85-20 20.15-20 21.05-25.1 23.6-25.1ZM60.25-24L51.4 0.5 46.25 0.5 37.35-24 34.55-24.95 34.55-27 45.75-27 45.75-24.95 42.45-24 49.5-3.05 49.7-3.05 56.75-24 53.65-24.95 53.65-27 63.15-27 63.15-24.95 60.25-24ZM87.6-13.2L87.6-13.2 70.15-13.2Q70.15-9.55 71.15-7.15L71.15-7.15Q72.15-4.85 74-3.85 75.85-2.85 78-2.85L78-2.85Q80.35-2.85 82.3-3.83 84.25-4.8 85.8-6.5L85.8-6.5 87.4-5.3Q85.65-2.9 83.15-1.2 80.65 0.5 76.7 0.5L76.7 0.5Q73.25 0.5 70.6-0.98 67.95-2.45 66.55-5.3L66.55-5.3Q65.8-6.85 65.45-8.75 65.1-10.65 65.1-12.8L65.1-12.8Q65.1-19.8 68.32-23.65 71.55-27.5 77.1-27.5L77.1-27.5Q82.2-27.5 84.97-24.33 87.75-21.15 87.75-15.55L87.75-15.55Q87.75-15.05 87.72-14.63 87.7-14.2 87.6-13.2ZM76.8-24.8L76.8-24.8Q70.8-24.8 70.2-15.65L70.2-15.65 82.7-15.65 82.7-17.3Q82.7-20.9 81.17-22.85 79.65-24.8 76.8-24.8ZM91.74-2.05L95.59-3 95.59-24 91.74-24.95 91.74-27 98.94-27 100.04-22 100.24-22Q101.74-24.55 104.29-26.03 106.84-27.5 109.74-27.5L109.74-27.5Q113.89-27.5 115.89-24.8L115.89-24.8Q116.89-23.4 117.32-20.88 117.74-18.35 117.74-14.05L117.74-14.05 117.74-3 121.59-2.05 121.59 0 109.54 0 109.54-2.05 112.89-3 112.89-14.15Q112.89-17.4 112.72-19 112.54-20.6 112.09-21.5L112.09-21.5Q111.49-22.7 110.37-23.33 109.24-23.95 107.69-23.95L107.69-23.95Q104.79-23.95 102.69-22.1L102.69-22.1Q100.64-20.25 100.44-16.35L100.44-16.35 100.44-3 103.79-2.05 103.79 0 91.74 0 91.74-2.05ZM127.99-24.5L123.14-24.5 123.14-26.3 127.99-27 128.64-33.3 132.84-33.9 132.84-27 139.24-27 139.24-24.5 132.84-24.5 132.84-6.65Q132.84-4.95 132.89-4.33 132.94-3.7 133.09-3.3L133.09-3.3Q133.24-2.95 133.64-2.83 134.04-2.7 134.94-2.7L134.94-2.7 138.44-2.7 138.44-1.25Q136.04-0.35 134.22 0.08 132.39 0.5 131.29 0.5L131.29 0.5Q129.04 0.5 128.39-1.35L128.39-1.35Q128.19-1.95 128.09-2.9 127.99-3.85 127.99-5.7L127.99-5.7 127.99-24.5ZM151.94-1.8L151.94-1.8Q154.74-1.8 156.51-2.95 158.29-4.1 158.29-6.15L158.29-6.15Q158.29-7.8 157.19-8.8 156.09-9.8 154.46-10.43 152.84-11.05 151.19-11.5L151.19-11.5Q149.14-12.15 147.24-13.03 145.34-13.9 144.14-15.45 142.94-17 142.94-19.55L142.94-19.55Q142.94-23.15 145.56-25.33 148.19-27.5 152.89-27.5L152.89-27.5Q156.89-27.5 159.21-25.83 161.54-24.15 161.54-21.25L161.54-21.25Q161.54-19.7 160.84-18.78 160.14-17.85 158.84-17.85L158.84-17.85Q157.69-17.85 156.94-18.55 156.19-19.25 156.19-20.35L156.19-20.35Q156.19-21.3 156.69-22.08 157.19-22.85 157.99-23.2L157.99-23.2Q157.24-24.25 156.06-24.73 154.89-25.2 153.04-25.2L153.04-25.2Q150.04-25.2 148.54-24.13 147.04-23.05 147.04-20.95L147.04-20.95Q147.04-19.45 147.76-18.57 148.49-17.7 149.89-17.1 151.29-16.5 153.34-15.85L153.34-15.85Q155.04-15.35 156.69-14.73 158.34-14.1 159.69-13.2 161.04-12.3 161.84-10.95 162.64-9.6 162.64-7.6L162.64-7.6Q162.64-5.05 161.24-3.23 159.84-1.4 157.39-0.45 154.94 0.5 151.74 0.5L151.74 0.5Q147.34 0.5 144.64-1.3 141.94-3.1 141.94-6.15L141.94-6.15Q141.94-7.75 142.66-8.68 143.39-9.6 144.74-9.6L144.74-9.6Q145.94-9.6 146.76-8.9 147.59-8.2 147.59-7.05L147.59-7.05Q147.59-6.1 147.06-5.25 146.54-4.4 145.79-4L145.79-4Q146.44-3.05 148.11-2.43 149.79-1.8 151.94-1.8Z" opacity="1" transform="matrix(1,0,0,1,0,0)" fill="#000000" class="wordmark-text-0" data-fill-palette-color="primary" id="text-0"></path></svg></g></svg></g></svg></g></svg></g><g><svg viewBox="0 0 232.08057776848065 235.4810257943925" height="235.4810257943925" width="232.08057776848065"><g><svg xmlns="http://www.w3.org/2000/svg" xmlns:xlink="http://www.w3.org/1999/xlink" version="1.1" x="0" y="0" viewBox="17.7 17.3 54.599999999999994 55.400000000000006" enable-background="new 0 0 90 90" xml:space="preserve" height="235.4810257943925" width="232.08057776848065" class="icon-icon-0" data-fill-palette-color="accent" id="icon-0"><path fill="#000000" d="M72.3 32.2v7.1 25.7c0 4.3-3.5 7.7-7.7 7.7H25.4c-4.3 0-7.7-3.5-7.7-7.7V39.3v-7.1c0-4.3 3.5-7.7 7.7-7.7h2.6v3V32c0 3.1 2.5 5.6 5.6 5.6s5.6-2.5 5.6-5.6v-4.5-3h12.2v3V32c0 3.1 2.5 5.6 5.6 5.6 3.1 0 5.6-2.5 5.6-5.6v-4.5-3h2.1C68.8 24.5 72.3 27.9 72.3 32.2zM70 38.6H20v26.4c0 3 2.4 5.4 5.4 5.4h39.2c3 0 5.4-2.4 5.4-5.4V38.6zM33.6 35.4c1.9 0 3.4-1.5 3.4-3.4v-4.5-3-3.8c0-1.9-1.5-3.4-3.4-3.4-1.9 0-3.4 1.5-3.4 3.4v3.8 3V32C30.2 33.9 31.7 35.4 33.6 35.4zM57 35.4c1.9 0 3.4-1.5 3.4-3.4v-4.5-3-3.8c0-1.9-1.5-3.4-3.4-3.4-1.9 0-3.4 1.5-3.4 3.4v3.8 3V32C53.5 33.9 55.1 35.4 57 35.4zM57.5 45.8c-1-1-2.7-1-3.7 0L41.6 57.9l-5.4-5.4c-1-1-2.7-1-3.7 0-1 1-1 2.7 0 3.7l7.2 7.2c0.5 0.5 1.2 0.8 1.8 0.8s1.3-0.3 1.8-0.8l14-14C58.5 48.4 58.5 46.8 57.5 45.8z" data-fill-palette-color="accent"></path></svg></g></svg></g></svg></g><defs></defs></svg><rect width="395.52" height="143.54569606003562" fill="none" stroke="none" visibility="hidden"></rect></g></svg></g></svg>