<svg xmlns="http://www.w3.org/2000/svg" xmlns:xlink="http://www.w3.org/1999/xlink" version="1.1" width="256" height="256" viewBox="0 0 256 256" xml:space="preserve">

<defs>
</defs>
<g style="stroke: none; stroke-width: 0; stroke-dasharray: none; stroke-linecap: butt; stroke-linejoin: miter; stroke-miterlimit: 10; fill: none; fill-rule: nonzero; opacity: 1;" transform="translate(1.4065934065934016 1.4065934065934016) scale(2.81 2.81)" >
	<circle cx="45.001" cy="47.211" r="42.791" style="stroke: none; stroke-width: 1; stroke-dasharray: none; stroke-linecap: butt; stroke-linejoin: miter; stroke-miterlimit: 10; fill: rgb(232,129,2); fill-rule: nonzero; opacity: 1;" transform="  matrix(1 0 0 1 0 0) "/>
	<circle cx="45" cy="42.79" r="35" style="stroke: none; stroke-width: 1; stroke-dasharray: none; stroke-linecap: butt; stroke-linejoin: miter; stroke-miterlimit: 10; fill: rgb(243,158,9); fill-rule: nonzero; opacity: 1;" transform="  matrix(1 0 0 1 0 0) "/>
	<path d="M 45 13.791 c 17.977 0 32.78 13.555 34.766 31 c 0.15 -1.313 0.234 -2.647 0.234 -4 c 0 -19.33 -15.67 -35 -35 -35 s -35 15.67 -35 35 c 0 1.353 0.085 2.687 0.234 4 C 12.22 27.346 27.023 13.791 45 13.791 z" style="stroke: none; stroke-width: 1; stroke-dasharray: none; stroke-linecap: butt; stroke-linejoin: miter; stroke-miterlimit: 10; fill: rgb(232,129,2); fill-rule: nonzero; opacity: 1;" transform=" matrix(1 0 0 1 0 0) " stroke-linecap="round" />
	<path d="M 45 0 C 21.367 0 2.209 19.158 2.209 42.791 c 0 23.633 19.158 42.791 42.791 42.791 s 42.791 -19.158 42.791 -42.791 C 87.791 19.158 68.633 0 45 0 z M 45 75.928 c -18.301 0 -33.137 -14.836 -33.137 -33.137 C 11.863 24.49 26.699 9.653 45 9.653 S 78.137 24.49 78.137 42.791 C 78.137 61.092 63.301 75.928 45 75.928 z" style="stroke: none; stroke-width: 1; stroke-dasharray: none; stroke-linecap: butt; stroke-linejoin: miter; stroke-miterlimit: 10; fill: rgb(254,236,154); fill-rule: nonzero; opacity: 1;" transform=" matrix(1 0 0 1 0 0) " stroke-linecap="round" />
	<path d="M 45 0 C 21.367 0 2.209 19.158 2.209 42.791 c 0 23.633 19.158 42.791 42.791 42.791 s 42.791 -19.158 42.791 -42.791 C 87.791 19.158 68.633 0 45 0 z M 45 75.928 c -18.301 0 -33.137 -14.836 -33.137 -33.137 C 11.863 24.49 26.699 9.653 45 9.653 S 78.137 24.49 78.137 42.791 C 78.137 61.092 63.301 75.928 45 75.928 z" style="stroke: none; stroke-width: 1; stroke-dasharray: none; stroke-linecap: butt; stroke-linejoin: miter; stroke-miterlimit: 10; fill: rgb(253,216,53); fill-rule: nonzero; opacity: 1;" transform=" matrix(1 0 0 1 0 0) " stroke-linecap="round" />
	<path d="M 83.422 23.947 l -7.339 7.339 c 1.241 3.352 1.947 6.961 2.035 10.723 l 8.623 -8.623 C 85.999 30.079 84.88 26.916 83.422 23.947 z" style="stroke: none; stroke-width: 1; stroke-dasharray: none; stroke-linecap: butt; stroke-linejoin: miter; stroke-miterlimit: 10; fill: rgb(254,236,154); fill-rule: nonzero; opacity: 1;" transform=" matrix(1 0 0 1 0 0) " stroke-linecap="round" />
	<path d="M 44.218 75.909 c -3.762 -0.087 -7.371 -0.794 -10.723 -2.035 l -7.339 7.339 c 2.969 1.459 6.132 2.578 9.439 3.32 L 44.218 75.909 z" style="stroke: none; stroke-width: 1; stroke-dasharray: none; stroke-linecap: butt; stroke-linejoin: miter; stroke-miterlimit: 10; fill: rgb(254,236,154); fill-rule: nonzero; opacity: 1;" transform=" matrix(1 0 0 1 0 0) " stroke-linecap="round" />
	<path d="M 15.236 57.365 l -7.118 7.118 c 3.188 5.408 7.526 10.054 12.685 13.598 l 6.975 -6.975 C 22.396 67.826 18.027 63.053 15.236 57.365 z" style="stroke: none; stroke-width: 1; stroke-dasharray: none; stroke-linecap: butt; stroke-linejoin: miter; stroke-miterlimit: 10; fill: rgb(254,236,154); fill-rule: nonzero; opacity: 1;" transform=" matrix(1 0 0 1 0 0) " stroke-linecap="round" />
	<path d="M 66.692 5.909 l -7.118 7.118 c 5.688 2.791 10.461 7.16 13.741 12.541 l 6.975 -6.975 C 76.745 13.435 72.1 9.097 66.692 5.909 z" style="stroke: none; stroke-width: 1; stroke-dasharray: none; stroke-linecap: butt; stroke-linejoin: miter; stroke-miterlimit: 10; fill: rgb(254,236,154); fill-rule: nonzero; opacity: 1;" transform=" matrix(1 0 0 1 0 0) " stroke-linecap="round" />
	<path d="M 49.861 10.012 c 1.441 0.212 2.849 0.522 4.223 0.913 l 7.565 -7.565 c -1.224 -0.517 -2.478 -0.976 -3.756 -1.379 L 49.861 10.012 z" style="stroke: none; stroke-width: 1; stroke-dasharray: none; stroke-linecap: butt; stroke-linejoin: miter; stroke-miterlimit: 10; fill: rgb(254,236,154); fill-rule: nonzero; opacity: 1;" transform=" matrix(1 0 0 1 0 0) " stroke-linecap="round" />
	<path d="M 5.569 59.44 l 7.565 -7.565 c -0.391 -1.374 -0.701 -2.782 -0.913 -4.223 L 4.19 55.683 C 4.593 56.962 5.052 58.216 5.569 59.44 z" style="stroke: none; stroke-width: 1; stroke-dasharray: none; stroke-linecap: butt; stroke-linejoin: miter; stroke-miterlimit: 10; fill: rgb(254,236,154); fill-rule: nonzero; opacity: 1;" transform=" matrix(1 0 0 1 0 0) " stroke-linecap="round" />
	<path d="M 57.817 34.468 h -4.079 c -0.308 -1.24 -0.8 -2.405 -1.449 -3.468 h 5.528 c 1.657 0 3 -1.343 3 -3 s -1.343 -3 -3 -3 H 41.651 h -9.468 c -1.657 0 -3 1.343 -3 3 s 1.343 3 3 3 h 9.468 c 2.483 0 4.641 1.409 5.724 3.468 H 32.183 c -1.657 0 -3 1.343 -3 3 s 1.343 3 3 3 h 15.192 c -1.083 2.059 -3.241 3.468 -5.724 3.468 h -9.468 c -0.012 0 -0.023 0.003 -0.035 0.004 c -0.13 0.002 -0.259 0.021 -0.388 0.039 c -0.067 0.01 -0.137 0.011 -0.203 0.025 c -0.113 0.024 -0.222 0.066 -0.333 0.103 c -0.074 0.025 -0.152 0.042 -0.223 0.073 c -0.088 0.038 -0.17 0.092 -0.255 0.138 c -0.086 0.047 -0.176 0.089 -0.257 0.144 c -0.064 0.044 -0.122 0.101 -0.183 0.151 c -0.093 0.075 -0.187 0.147 -0.27 0.233 c -0.009 0.009 -0.02 0.016 -0.029 0.025 c -0.049 0.052 -0.084 0.112 -0.129 0.166 c -0.073 0.088 -0.147 0.174 -0.209 0.27 c -0.052 0.08 -0.092 0.165 -0.135 0.249 c -0.046 0.089 -0.095 0.175 -0.133 0.269 c -0.038 0.095 -0.062 0.193 -0.09 0.291 c -0.026 0.09 -0.055 0.177 -0.072 0.27 c -0.021 0.114 -0.027 0.229 -0.035 0.344 c -0.005 0.069 -0.021 0.136 -0.021 0.206 c 0 0.013 0.004 0.025 0.004 0.038 c 0.002 0.121 0.02 0.241 0.036 0.362 c 0.01 0.076 0.012 0.154 0.028 0.228 c 0.022 0.104 0.062 0.203 0.095 0.305 c 0.028 0.084 0.047 0.17 0.081 0.251 c 0.036 0.083 0.087 0.161 0.131 0.241 c 0.049 0.091 0.093 0.185 0.151 0.269 c 0.044 0.064 0.1 0.12 0.15 0.181 c 0.075 0.093 0.148 0.188 0.234 0.271 c 0.009 0.009 0.016 0.02 0.025 0.029 l 20.096 19.065 c 0.58 0.55 1.322 0.823 2.063 0.823 c 0.795 0 1.588 -0.313 2.178 -0.936 c 1.14 -1.202 1.09 -3.101 -0.112 -4.241 L 39.704 49.936 h 1.947 c 5.839 0 10.739 -4.04 12.087 -9.468 h 4.079 c 1.657 0 3 -1.343 3 -3 S 59.474 34.468 57.817 34.468 z" style="stroke: none; stroke-width: 1; stroke-dasharray: none; stroke-linecap: butt; stroke-linejoin: miter; stroke-miterlimit: 10; fill: rgb(232,129,2); fill-rule: nonzero; opacity: 1;" transform=" matrix(1 0 0 1 0 0) " stroke-linecap="round" />
	<path d="M 57.817 30.468 h -4.079 c -0.308 -1.24 -0.8 -2.405 -1.449 -3.468 h 5.528 c 1.657 0 3 -1.343 3 -3 s -1.343 -3 -3 -3 H 41.651 h -9.468 c -1.657 0 -3 1.343 -3 3 s 1.343 3 3 3 h 9.468 c 2.483 0 4.641 1.409 5.724 3.468 H 32.183 c -1.657 0 -3 1.343 -3 3 s 1.343 3 3 3 h 15.192 c -1.083 2.059 -3.241 3.468 -5.724 3.468 h -9.468 c -0.012 0 -0.023 0.003 -0.035 0.004 c -0.13 0.002 -0.259 0.021 -0.388 0.039 c -0.067 0.01 -0.137 0.011 -0.203 0.025 c -0.113 0.024 -0.222 0.066 -0.333 0.103 c -0.074 0.025 -0.152 0.042 -0.223 0.073 c -0.088 0.038 -0.17 0.092 -0.255 0.138 c -0.086 0.047 -0.176 0.089 -0.257 0.144 c -0.064 0.044 -0.122 0.101 -0.183 0.151 c -0.093 0.075 -0.187 0.147 -0.27 0.233 c -0.009 0.009 -0.02 0.016 -0.029 0.025 c -0.049 0.052 -0.084 0.112 -0.129 0.166 c -0.073 0.088 -0.147 0.174 -0.209 0.27 c -0.052 0.08 -0.092 0.165 -0.135 0.249 c -0.046 0.089 -0.095 0.175 -0.133 0.269 c -0.038 0.095 -0.062 0.193 -0.09 0.291 c -0.026 0.09 -0.055 0.177 -0.072 0.27 c -0.021 0.114 -0.027 0.229 -0.035 0.344 c -0.005 0.069 -0.021 0.136 -0.021 0.206 c 0 0.013 0.004 0.025 0.004 0.038 c 0.002 0.121 0.02 0.241 0.036 0.362 c 0.01 0.076 0.012 0.154 0.028 0.228 c 0.022 0.104 0.062 0.203 0.095 0.305 c 0.028 0.084 0.047 0.17 0.081 0.251 c 0.036 0.083 0.087 0.161 0.131 0.241 c 0.049 0.091 0.093 0.185 0.151 0.269 c 0.044 0.064 0.1 0.12 0.15 0.181 c 0.075 0.093 0.148 0.188 0.234 0.271 c 0.009 0.009 0.016 0.02 0.025 0.029 l 20.096 19.065 c 0.58 0.55 1.322 0.823 2.063 0.823 c 0.795 0 1.588 -0.313 2.178 -0.936 c 1.14 -1.202 1.09 -3.101 -0.112 -4.241 L 39.704 45.936 h 1.947 c 5.839 0 10.739 -4.04 12.087 -9.468 h 4.079 c 1.657 0 3 -1.343 3 -3 S 59.474 30.468 57.817 30.468 z" style="stroke: none; stroke-width: 1; stroke-dasharray: none; stroke-linecap: butt; stroke-linejoin: miter; stroke-miterlimit: 10; fill: rgb(253,216,53); fill-rule: nonzero; opacity: 1;" transform=" matrix(1 0 0 1 0 0) " stroke-linecap="round" />
</g>
</svg>